<?xml version="1.0" encoding="utf-8"?>
<!-- Generator: Adobe Illustrator 19.1.0, SVG Export Plug-In . SVG Version: 6.00 Build 0)  -->
<!DOCTYPE svg PUBLIC "-//W3C//DTD SVG 1.1//EN" "http://www.w3.org/Graphics/SVG/1.1/DTD/svg11.dtd">
<svg version="1.1" id="Layer_1" xmlns="http://www.w3.org/2000/svg" xmlns:xlink="http://www.w3.org/1999/xlink" x="0px" y="0px"
	 viewBox="0 0 517.6 264" enable-background="new 0 0 517.6 264" xml:space="preserve">
<g>
	<path d="M279.8,34.9c1.8,0,3.6,0.5,4.5,0.8l-3.4,18.7c-2.3-0.7-3.9-1-6.9-1c-8.6,0-10.8,2.6-10.8,11v17.3c0,6.5,1.4,8,8.9,8v5.5
		h-34.3v-5.5c5.6,0,6.8-1.5,6.8-8v-27c0-8.4-1-9.5-6.5-9.7v-5.4l19.4-4.6h1.7c0.8,1.4,3.6,7.1,3.9,15
		C265.6,39.6,273.5,34.9,279.8,34.9z"/>
	<g>
		<path d="M47.5,161.5c0,6.5,1.4,8,8.9,8v5.5H22.2v-5.5c5.5,0,6.8-1.5,6.8-8v-35.9h-7v-6.4l7-2.9v-7.8c0-12.6,8.7-18.7,22.4-18.7
			c4.8,0,12.6,0.9,16.4,2.6l-0.1,12.7H57c-0.1-5.5-1.7-7.1-4.6-7.1c-3.6,0-5,2.5-5,7.3v10.9h13.9l-2,9.3H47.5V161.5z"/>
		<path d="M93.4,176.5c-18.7,0-29.4-11.2-29.4-30.7c0-18.4,11.6-31,30.5-31c16.6,0,29,9,29,29.6C123.5,167.1,109.4,176.5,93.4,176.5
			z M93.7,122.5c-6.2,0-9.3,4.9-9.3,23.9c0,15.8,2,22.7,9.5,22.7c6.1,0,9.2-7,9.2-25.3C103.1,127.5,99.9,122.5,93.7,122.5z"/>
		<path d="M365.9,170.5v-12.5l12.2-0.2c0.9,8.1,5.3,10.2,11.1,10.2c5.4,0,9.1-2.1,9.1-6.6c0-4.4-2.5-6.3-7.6-7.3l-9.4-1.9
			c-9.7-2.1-15.3-8.2-15.3-18.3c0-13.5,10.8-20,23.7-20c10.7,0,17.3,2.7,20.4,4.1v12.6h-11.2c-0.9-6.6-4.9-8.7-10.7-8.7
			c-4.8,0-7.7,1.9-7.7,6.2c0,3.5,2.1,5.3,6.2,6.2l8.7,1.9c11.5,2.5,18.2,8.9,18.2,19.8c0,12.6-9.3,19.6-25.9,19.6
			C375.3,175.5,369.2,172.3,365.9,170.5z"/>
		<path d="M342.7,159.9c1,0,1.9,0.1,2.8,0.2l8.9-32.1c1.5-5.5,3.2-6.6,8-7.2v-5.6h-24.5v5.6c4.5,0,6.4,1,6.4,4c0,1-0.1,1.8-0.2,2.5
			l-4.9,21.6c-0.7,2.9-1.3,7.9-1.4,8.7H337c-0.1-1.3-0.8-5.5-1.9-9.3l-10.6-33.2h-13.6l-8.4,33.1c-1,4.2-1.5,8.6-1.5,9.4h-0.7
			c-0.1-1-0.7-5.3-1.7-9.4l-5.3-20.8c-0.2-0.9-0.3-1.7-0.3-2.4c0-2.6,1.8-4.2,6.3-4.2v-5.6h-32v5.6c4.1,0.6,5.4,1.5,7.3,7.8
			l12.9,42.8l17.9-1.6l6.2-22c1.3-4.5,2.2-10,2.3-11.6h0.7c0,0.9,0.7,7.3,2.2,11.7l8.4,24.3C327.7,165.1,334.6,159.9,342.7,159.9z"
			/>
		<path d="M236,113.8c-18.9,0-30.5,12.6-30.5,31c0,5.8,1,10.9,2.8,15.2c7.8,0.8,14,6.4,15.7,13.9c3.2,1,6.8,1.5,10.8,1.5
			c16.1,0,30.2-9.4,30.2-32.1C265,122.8,252.6,113.8,236,113.8z M235.4,168c-7.6,0-9.5-6.9-9.5-22.7c0-19,3.1-23.9,9.3-23.9
			s9.4,5,9.4,21.3C244.6,161,241.5,168,235.4,168z"/>
		<path d="M174.2,105.1v52.5c0,0.8,0,1.6-0.1,2.3c5,0.1,13.7,1,18.8,3.3l0,0c-0.3-1.4-0.2-3.2-0.2-5.6V98.3c0-7.3-1.7-10.5-2.3-11.3
			h-1.7l-17.5,2.4v6.7C173.5,97.1,174.2,99.4,174.2,105.1z"/>
		<path d="M155.2,164.4c-0.1-0.8-0.1-1.8-0.1-2.9v-59h-19.3c0.5,1.4,0.7,3.5,0.7,6.4v52.5c0,6.5,0.7,7.3-4.1,8v5.5h13.4
			C147.7,170.5,150.9,167,155.2,164.4z"/>
	</g>
	<path d="M365.2,35c9.3,0,16.7,5.5,16.7,17.7v29c0,6.5,1.1,7.9,6.7,8v5.4h-31.4v-5.4c5.5,0,6.2-1.5,6.2-7.9V57.2
		c0-7-2.6-9.3-6.9-9.3c-4.1,0-7.1,1.7-9.6,3.4v30.5c0,6.4,0.7,7.8,6.1,7.9v5.4h-30.8v-5.4c5.6,0,6.2-1.5,6.2-7.9V57.2
		c0-7-2.6-9.3-6.8-9.3c-4.4,0-7.2,1.8-9.9,3.5v30.3c0,6.4,0.6,7.9,6.2,7.9v5.4h-31.5v-5.4c5.6-0.1,6.8-1.5,6.8-8V54.6
		c0-8.4-1-9.5-6.5-9.7v-5.4l19.4-4.6h1.7c0.7,1.1,3,5.3,3.3,10.1c4.9-6.2,10.8-10,19.2-10c6.9,0,12.7,3.9,15.3,10.3
		C350.3,39,356.8,35,365.2,35z"/>
	<path d="M201.9,34.9c-18.9,0-30.5,12.6-30.5,31c0,6,1,11.3,3,15.6l14.4-1.9h3.9c-0.6-3.4-0.8-7.7-0.8-13.1c0-19,3.1-23.9,9.3-23.9
		c6.2,0,9.4,5,9.4,21.3c0,18.3-3.1,25.3-9.2,25.3c-0.8,0-1.5-0.1-2.2-0.2c0.5,2,0.9,4.6,1,7.7c0.2,0,0.4,0,0.6,0
		c16.1,0,30.2-9.4,30.2-32.1C230.9,43.9,218.6,34.9,201.9,34.9z"/>
	<g>
		<path d="M190.9,252.6v-5.5c5.6,0,6.8-1.5,6.8-8v-27c0-8.4-1-9.5-6.5-9.7v-5.4l22.5-3.9h2.6v46c0,6.5,1.1,8,6.8,8v5.5H190.9z
			 M206.3,188.7c-5.8,0-10.8-4.7-10.8-10.6c0-5.8,4.9-10.6,11-10.6c6.1,0,10.7,4.8,10.7,10.6C217.1,184,212.3,188.7,206.3,188.7z"/>
		<path d="M318.4,203.1h-11.9V233c0,8.4,0.7,11.8,6.4,11.8c2.1,0,3.9-0.5,6.5-1.5l1.9,6.4c-4.6,2.9-9.7,4.4-16.6,4.4
			c-10.9,0-16.9-3.9-16.9-16.7v-34.2H281v-6.4l7.7-3.1c0.7-5.2,2.4-10.6,5.3-15l13.4-1.5c-0.6,4.1-1,10.9-1,16.7h13.9L318.4,203.1z"
			/>
		<path d="M327.1,252.6v-5.5c5.6,0,6.8-1.5,6.8-8v-27c0-8.4-1-9.5-6.5-9.7v-5.4l22.5-3.9h2.6v46c0,6.5,1.1,8,6.8,8v5.5H327.1z
			 M342.5,188.7c-5.8,0-10.8-4.7-10.8-10.6c0-5.8,4.9-10.6,11-10.6s10.7,4.8,10.7,10.6C353.4,184,348.6,188.7,342.5,188.7z"/>
		<path d="M169.8,239.1c0,6.5,1.4,8,8.9,8v5.5h-34.3v-5.5c5.5,0,6.8-1.5,6.8-8v-35.9h-7v-6.4l7-2.9v-7.8c0-12.6,8.7-18.7,22.4-18.7
			c4.8,0,12.6,0.9,16.4,2.6l-0.1,12.7h-10.5c-0.1-5.5-1.7-7.1-4.6-7.1c-3.6,0-5,2.5-5,7.3v10.9h13.9l-2,9.3h-11.8V239.1z"/>
		<path d="M275.3,210.1h-13.9c-0.2-7.2-0.9-10.2-5.2-10.2c-4.6,0-11.1,4-11.1,21.6c0,16.8,7.2,22.1,15.4,22.1
			c4.9,0,8.4-0.9,13.1-3.5l3.1,4.7c-5.3,6.3-13.4,9.3-22.2,9.3c-15.6,0-28.4-9.7-28.4-29.9c0-20.7,14-31.7,30.2-31.7
			c9.2,0,14.9,1.8,19.1,4.6V210.1z"/>
		<path d="M394.5,254.1c-18.7,0-29.4-11.2-29.4-30.7c0-18.4,11.6-31,30.5-31c16.6,0,29,9,29,29.6
			C424.7,244.7,410.6,254.1,394.5,254.1z M394.9,200c-6.2,0-9.3,4.9-9.3,23.9c0,15.8,2,22.7,9.5,22.7c6.1,0,9.2-7,9.2-25.3
			C404.3,205.1,401.1,200,394.9,200z"/>
		<path d="M489,239.1c0,6.5,1.1,8,6.7,8v5.5h-32v-5.5c5.6,0,6.8-1.5,6.8-7.9v-24.5c0-7-2.8-9.3-7.5-9.3c-4.7,0-7.9,1.8-10.5,3.7
			v30.1c0,6.4,1.1,7.9,6.8,7.9v5.5h-32.1v-5.5c5.6,0,6.8-1.5,6.8-8v-27c0-8.4-1-9.5-6.5-9.7v-5.4l19.4-4.6h1.7
			c0.8,1.1,3.2,5.7,3.6,10.4c4.9-5.7,11.1-10.3,20.2-10.3c9.4,0,16.9,5.5,16.9,17.7V239.1z"/>
	</g>
	<path d="M154.9,81.6c0,6.5,1.4,8,8.9,8v5.5h-34.3v-5.5c5.5,0,6.8-1.5,6.8-8V45.6h-7v-6.4l7-2.9v-7.8c0-12.6,8.7-18.7,22.4-18.7
		c4.8,0,12.6,0.9,16.4,2.6L175,25.3h-10.5c-0.1-5.5-1.7-7.1-4.6-7.1c-3.6,0-5,2.5-5,7.3v10.9h13.9l-2,9.3h-11.8V81.6z"/>
</g>
</svg>
